<?xml version="1.0" encoding="utf-8"?>
<!-- Svg Vector Icons : http://www.onlinewebfonts.com/icon -->
<!DOCTYPE svg PUBLIC "-//W3C//DTD SVG 1.1//EN" "http://www.w3.org/Graphics/SVG/1.1/DTD/svg11.dtd">
<svg version="1.1" xmlns="http://www.w3.org/2000/svg" xmlns:xlink="http://www.w3.org/1999/xlink" x="0px" y="0px" viewBox="0 0 1000 1000" enable-background="new 0 0 1000 1000" xml:space="preserve">
<metadata> Svg Vector Icons : http://www.onlinewebfonts.com/icon </metadata>
<g><g transform="translate(0.000000,511.000000) scale(0.100000,-0.100000)"><path d="M4657.1,4973.3c-159.3-81.9-201.3-159.3-232.3-420.4c-33.2-307.5-104-422.6-444.7-719.1c-77.4-68.6-170.4-174.8-201.3-234.5c-121.7-223.5-130.5-296.5-126.1-1199.2l2.2-827.5l-119.5-92.9C3159.2,1183.2,2887,754,2760.9,260.6L2710,63.7v-2201.5v-2201.5l50.9-92.9c73-139.4,163.7-234.5,285.4-294.3l106.2-55.3l1803.2-6.6c1285.5-4.4,1829.8,0,1893.9,17.7c135,37.6,292.1,170.4,371.7,309.8l68.6,121.7v2190.4V41.6l-50.9,196.9C7113,736.3,6863,1127.9,6464.7,1457.6l-137.2,115l-6.6,904.9l-4.4,904.9l-70.8,143.8c-68.6,139.4-139.4,219-422.6,475.7c-154.9,141.6-241.2,320.8-267.7,553.1c-26.5,247.8-99.6,371.7-252.2,429.2C5201.3,5024.2,4736.7,5015.4,4657.1,4973.3z M5287.6,4721.1c46.5-46.5,48.7-55.3,84.1-296.5c13.3-86.3,55.3-214.6,95.1-296.5c68.6-139.4,110.6-185.9,435.9-491.2c97.4-92.9,141.6-154.9,179.2-250c46.5-126.1,46.5-154.9,42-918.2l-6.6-789.9l-1110.7-6.6l-1112.9-4.4l-11.1,50.9c-8.8,28.8-11.1,393.8-6.6,814.2l6.6,761.1l61.9,126.1c44.3,92.9,119.5,179.2,283.2,329.7c296.5,274.4,391.6,446.9,427,776.6c24.3,214.6,59.7,238.9,358.4,238.9C5212.4,4765.3,5250,4758.7,5287.6,4721.1z M6278.8,1327c152.7-117.3,345.2-318.6,442.5-460.2c108.4-157.1,241.2-449.1,296.5-648.3c48.7-177,48.7-181.4,57.5-2294.4c4.4-1455.8-2.2-2146.2-17.7-2205.9c-26.6-104-112.8-212.4-201.3-256.6c-90.7-46.5-3588.7-48.7-3699.4-2.2c-92.9,37.6-183.6,146-214.6,252.2c-13.3,53.1-22.1,778.8-22.1,2095.3c0,2146.2,4.4,2263.4,110.6,2564.3c128.3,376.1,393.8,732.4,723.5,977.9l115,86.3l1141.7-4.4l1141.7-6.6L6278.8,1327z"/><path d="M4309.7,3192.2c-37.6-19.9-39.8-75.2-39.8-650.5v-630.6l55.3-35.4c50.9-33.2,59.7-33.2,110.6,0l55.3,35.4v617.3c0,568.6-2.2,617.3-39.8,650.5C4404.8,3221,4365,3225.4,4309.7,3192.2z"/><path d="M4924.8,3181.2c-31-28.8-35.4-119.5-35.4-650.5v-619.5l55.3-35.4c50.9-33.2,59.7-33.2,110.6,0l55.3,35.4v619.5c0,531-4.4,621.7-35.4,650.5c-17.7,19.9-53.1,35.4-75.2,35.4C4977.9,3216.6,4942.5,3201.1,4924.8,3181.2z"/><path d="M5546.5,3176.7c-33.2-35.4-37.6-112.9-37.6-641.6c0-573.1,2.2-604,44.2-646.1c53.1-53.1,64.2-53.1,128.3-8.9c48.7,33.2,48.7,37.6,48.7,650.5c0,531-4.4,621.7-35.4,650.5C5648.3,3227.6,5590.8,3225.4,5546.5,3176.7z"/><path d="M4632.7-241.6c-391.6-398.3-612.9-721.3-730.1-1066.4c-179.2-531,33.2-1112.9,508.9-1391.7c351.8-205.8,825.3-205.8,1177.1,0c402.7,236.7,632.8,712.4,562,1163.8c-59.7,393.8-320.8,820.8-796.5,1307.6L5119.5,8.4H5000h-121.7L4632.7-241.6z M5261.1-454c480.1-522.1,670.4-869.5,672.6-1234.6c0-371.7-194.7-685.9-533.2-854c-119.5-57.5-172.6-70.8-345.2-77.4c-254.4-11.1-400.5,26.5-590.8,157.1c-163.7,112.8-309.8,312-362.9,497.8c-101.8,347.4,0,714.6,316.4,1137.3c188.1,247.8,533.2,615.1,581.9,615.1C5024.3-212.9,5132.8-312.4,5261.1-454z"/><path d="M4767.7-1319.1L4435.8-1651h219h219l-157.1-163.7c-172.6-177-192.5-234.5-104-292.1c81.9-53.1,108.4-33.2,489,347.4l329.7,329.7h-219.1h-219l135,141.6c137.2,143.8,168.2,216.8,110.6,274.4C5165.9-940.8,5104-980.6,4767.7-1319.1z"/></g></g>
</svg>